# xmcd
#
# Track frame offsets: 
#        150
#        24034
#        44042
#        62117
#        92010
#        119253
#        122927
#        149648
#        166567
#        186119
#        215789
#        234654
#        252401
#        270488
#        303191
#
# Disc length: 4325 seconds
#
# Revision: 5
# Processed by: cddbd v1.5.2PL0 Copyright (c) Steve Scherf et al.
# Submitted via: ExactAudioCopy v0.99pb5
#
DISCID=d710e30f
DTITLE=Helloween - Walls Of Jericho (Exp Edit CD 1)
DYEAR=2006
DGENRE=Power Metal
TTITLE0=Starlight
TTITLE1=Murderer
TTITLE2=Warrior
TTITLE3=Victim Of Fate
TTITLE4=Cry For Freedom
TTITLE5=Walls Of Jericho
TTITLE6=Ride The Sky
TTITLE7=Reptile
TTITLE8=Guardians
TTITLE9=Phantoms Of Death
TTITLE10=Metal Invaders
TTITLE11=Gorgar
TTITLE12=Heavy Metal (Is The Law)
TTITLE13=How Many Tears
TTITLE14=Judas
EXTD=YEAR: 1986
EXTT0=
EXTT1=
EXTT2=
EXTT3=
EXTT4=
EXTT5=
EXTT6=
EXTT7=
EXTT8=
EXTT9=
EXTT10=
EXTT11=
EXTT12=
EXTT13=
EXTT14=
PLAYORDER=
